<svg xmlns="http://www.w3.org/2000/svg" width="52" height="53">
    <path fill-rule="evenodd" d="M25.999 52.937C11.666 52.937.4 41.276.4 26.942.4 12.608 11.666.947 25.999.947c14.334 0 25.995 11.661 25.995 25.995 0 14.334-11.661 25.995-25.995 25.995zm0-48.974C13.328 3.963 3.2 14.271 3.2 26.942s10.128 22.98 22.799 22.98c12.672 0 22.98-10.309 22.98-22.98 0-12.671-10.308-22.979-22.98-22.979z"/>
    <path fill-rule="evenodd" fill="#4130DF" d="M19.41 36.47c-.292-.132-.674.014-1.056.014s-.765-.146-1.056-.014c-.584-1.007-.584-1.953 0-2.536l15.67-15.669c.583-.584 1.528-.584 2.832 0-.137.583-.137 1.529 0 2.112L19.41 36.47zm-2.231-14.015a3.045 3.045 0 0 1 0-4.309 3.047 3.047 0 1 1 0 4.309zm17.628 9.01a3.047 3.047 0 1 1-4.308 4.309 3.047 3.047 0 0 1 4.308-4.309z"/>
</svg>
